<svg id="Layer_1_copy_2" data-name="Layer 1 copy 2" xmlns="http://www.w3.org/2000/svg" viewBox="0 0 139.79 39.21"><defs><style>.cls-1{fill:#ea5528;}</style></defs><title>Blago_Logo_bold_rgb</title><path class="cls-1" d="M142.38,41.76a1.65,1.65,0,0,0-1.59,1.13c-2.09,7-6.13,13.21-8.65,13.21a0.44,0.44,0,0,1-.22,0,1.31,1.31,0,0,1-.14-0.79,37.67,37.67,0,0,1,.94-6.29,29.87,29.87,0,0,0,.76-4.89c0-1.95-.87-2.35-1.6-2.35a1.65,1.65,0,0,0-1.65,1.1c-1.09,2.69-2.75,3.91-3.83,3.91s-1.33-.33-1.7-1.4l0-.1a5.2,5.2,0,0,0-5.1-3.63,9.22,9.22,0,0,0-5.31,2,1.62,1.62,0,0,0-1.66-1.79,1.73,1.73,0,0,0-1.78,1.64c-0.15,1.29-.31,2.58-0.47,3.85-4.71,5.54-8.51,14-8.51,19,0,4.38,2.67,4.72,3.49,4.72,5,0,6.59-10.64,8.1-20.94l0.22-1.47c2.13-2.33,4.13-3.55,5.8-3.55,0.62,0,2.28,0,2.28,3.63,0,5.2-2.82,7.54-4.83,7.54a2.22,2.22,0,0,1-1.1-.18,2.14,2.14,0,0,0-.95-0.23,1.48,1.48,0,0,0-1.6,1.54c0,1.06,1.22,2.13,3.55,2.13,3.9,0,7.92-3.59,8.36-9.67a4.68,4.68,0,0,0,1.18.15,5.79,5.79,0,0,0,2.77-.77,31.93,31.93,0,0,0-.81,6c0,3.75,2.29,4.31,3.65,4.31,2,0,4-1.14,5.75-3.48,0.65-.87,1.66-2.65,2.65-4.27a45.38,45.38,0,0,1-1.15,4.87,27.77,27.77,0,0,1-2.13,5.17c-2.1,3.87-5.08,5.8-8.46,5.8a3.37,3.37,0,0,1-2-.58,2.58,2.58,0,0,0-1.38-.49A1.53,1.53,0,0,0,123.64,68c0,1.14,1.76,2.8,4.94,2.8,12.18,0,15.4-17.21,15.4-26.3C144,43.42,144,41.76,142.38,41.76Zm0,1h0Zm-37,25.2a1.86,1.86,0,0,1-.26-1.22,23.8,23.8,0,0,1,2.18-8.44c0.73-1.71,1.67-4,3.17-7-0.51,2-1.46,6.12-1.7,7.31C107.11,66.34,105.71,67.81,105.33,68Z" transform="translate(-4.19 -31.77)"/><path class="cls-1" d="M99.27,54.68a2.39,2.39,0,1,0,2.32,2.39A2.28,2.28,0,0,0,99.27,54.68Z" transform="translate(-4.19 -31.77)"/><path class="cls-1" d="M89,41.6a7,7,0,0,0-3.62.67,2.08,2.08,0,0,0-1.25,1.84A1.61,1.61,0,0,0,86,45.67c1.27-.11,1.27-0.62,2.89-0.66,2.31,0,3.47,1.48,3.47,4.39,0,3.9-2.15,6.63-5.24,6.63a2.84,2.84,0,0,1-2.34-1c-1.47-1.77-.9-5.3-0.69-6.4l0-.14h0a1.59,1.59,0,0,0-1.06-2,1.74,1.74,0,0,0-2.06.88l-0.73,1.34h0l0,0.05C79.62,50,76.52,56,71.1,56c-1.74,0-1.74-.6-1.74-1,0-1.18,1.6-2.28,2.94-3,3.69-2,5.92-3.16,5.92-6.21,0-2-1.38-4.28-5.29-4.28-4.4,0-7.72,2.67-10.42,8.39-2.42,5.11-3.31,6-4.3,6A0.19,0.19,0,0,1,58,55.9C57.34,55,57.53,51,59.51,44.07a1.84,1.84,0,0,0-.27-1.37,1.47,1.47,0,0,0-1-.61,1.8,1.8,0,0,0-2,1.09,6.41,6.41,0,0,0-4.31-1.58c-2.79,0-6.59,1.36-8.82,7.82C42.22,52,40,56.09,37.88,56.09c-0.8,0-.89-2.19-0.89-3.13a37.07,37.07,0,0,1,1.25-8.6,2.4,2.4,0,0,0,0-2,1.43,1.43,0,0,0-1-.63,1.76,1.76,0,0,0-1.85,1.15c-4.38,9.75-8.12,13.21-10,13.21-0.34,0-.61,0-0.61-0.73a5,5,0,0,1,.79-2.54,3.41,3.41,0,0,0,.57-1.62,1.55,1.55,0,0,0-1.67-1.63c-1.21,0-2.27,0-3.22,0q0-.16,0-0.32c0-4.61-2.35-7.59-6-7.59a4.74,4.74,0,0,0-5.06,4.84c0,2.25,1.24,5.06,6.92,6A4.89,4.89,0,0,1,12.39,56c-3.82,0-4.63-4-4.63-5.71,0-6.54,4.11-11.53,10.72-13l2.65-.6c3-.68,4.72-1.92,4.72-3.4a1.49,1.49,0,0,0-1.47-1.54,2.1,2.1,0,0,0-1.36.59,5.37,5.37,0,0,1-2.54,1.14L18,34c-8.39,1.79-13.8,8.2-13.8,16.32,0,5.53,3.43,9.1,8.11,9.1,3.92,0,7.12-2.55,8.35-6.57l1.09,0a8.11,8.11,0,0,0-.42,2.46,3.75,3.75,0,0,0,4,4.09c2.38,0,4.93-1.88,7.52-5.48A22.48,22.48,0,0,0,34,51.17,15.87,15.87,0,0,0,33.52,54a6.75,6.75,0,0,0,1.33,4.19,3.68,3.68,0,0,0,2.91,1.25c2,0,3.86-1.12,5.52-3.41a4.64,4.64,0,0,0,4.5,3.41c2.5,0,4.58-1.25,6.51-4a5,5,0,0,0,1,2.69,3.53,3.53,0,0,0,2.83,1.19c3.27,0,5-3.08,7.23-7.78C67.55,47.06,69.91,45,72.8,45c1.22,0,1.84.32,1.84,1s-0.37,1.29-4,3.29c-2.42,1.34-4.89,3.11-4.89,6,0,2.62,2,4.25,5.29,4.25,3.58,0,6.83-1.79,9.51-5.22,0.78,3.35,3,5.22,6.41,5.22,5.16,0,8.91-4.28,8.91-10.17C95.89,44.54,93.25,41.6,89,41.6ZM48,56c-1.62,0-1.74-2.73-1.74-3.57,0-3.52,2.31-7.44,5.62-7.44A3.88,3.88,0,0,1,55,46.78C53.46,51.15,50.73,56,48,56ZM15.17,45c2.1,0,2.72,3.08,2.85,4.67-3.22-.45-4.53-2.22-4.47-3.28A1.49,1.49,0,0,1,15.17,45Z" transform="translate(-4.19 -31.77)"/></svg>