<svg id="SvgjsSvg1011" xmlns="http://www.w3.org/2000/svg" version="1.1" xmlns:xlink="http://www.w3.org/1999/xlink" xmlns:svgjs="http://svgjs.com/svgjs" width="33" height="19"><defs id="SvgjsDefs1012"></defs><path id="SvgjsPath1013" d="M431.66 522.92L433.57000000000005 522.92C433.57000000000005 522.92 434.15000000000003 522.86 434.44000000000005 522.55C434.71000000000004 522.26 434.71000000000004 521.7199999999999 434.71000000000004 521.7199999999999C434.71000000000004 521.7199999999999 434.67 519.1899999999999 435.86 518.8199999999999C437.03000000000003 518.4499999999999 438.54 521.26 440.14 522.3399999999999C441.34999999999997 523.16 442.27 522.9799999999999 442.27 522.9799999999999L446.53999999999996 522.92C446.53999999999996 522.92 448.77 522.79 447.71 521.06C447.63 520.91 447.09999999999997 519.77 444.53999999999996 517.43C441.85999999999996 514.9799999999999 442.21999999999997 515.38 445.43999999999994 511.12999999999994C447.40999999999997 508.54999999999995 448.19999999999993 506.9699999999999 447.94999999999993 506.29999999999995C447.7199999999999 505.65 446.2699999999999 505.81999999999994 446.2699999999999 505.81999999999994L441.4599999999999 505.8499999999999C441.4599999999999 505.8499999999999 441.0999999999999 505.8099999999999 440.8399999999999 505.9599999999999C440.5799999999999 506.1099999999999 440.4099999999999 506.4699999999999 440.4099999999999 506.4699999999999C440.4099999999999 506.4699999999999 439.6499999999999 508.4699999999999 438.63999999999993 510.1699999999999C436.48999999999995 513.7599999999999 435.63999999999993 513.9499999999999 435.2899999999999 513.7199999999999C434.4699999999999 513.1999999999999 434.6799999999999 511.63999999999993 434.6799999999999 510.5299999999999C434.6799999999999 507.0499999999999 435.20999999999987 505.5999999999999 433.6299999999999 505.2199999999999C433.1099999999999 505.0999999999999 432.7299999999999 505.0199999999999 431.3899999999999 504.9999999999999C429.66999999999985 504.9899999999999 428.21999999999986 505.0099999999999 427.39999999999986 505.4099999999999C426.84999999999985 505.6699999999999 426.42999999999984 506.25999999999993 426.67999999999984 506.2899999999999C426.99999999999983 506.3399999999999 427.71999999999986 506.4899999999999 428.09999999999985 506.9999999999999C428.59999999999985 507.6599999999999 428.57999999999987 509.1399999999999 428.57999999999987 509.1399999999999C428.57999999999987 509.1399999999999 428.85999999999984 513.2399999999999 427.91999999999985 513.7399999999999C427.26999999999987 514.0899999999999 426.3799999999998 513.3799999999999 424.46999999999986 510.1299999999999C423.48999999999984 508.45999999999987 422.74999999999983 506.6199999999999 422.74999999999983 506.6199999999999C422.74999999999983 506.6199999999999 422.60999999999984 506.26999999999987 422.34999999999985 506.0899999999999C422.04999999999984 505.8699999999999 421.61999999999983 505.7899999999999 421.61999999999983 505.7899999999999L417.03999999999985 505.8199999999999C417.03999999999985 505.8199999999999 416.35999999999984 505.83999999999986 416.09999999999985 506.1399999999999C415.8799999999998 506.39999999999986 416.08999999999986 506.9399999999999 416.08999999999986 506.9399999999999C416.08999999999986 506.9399999999999 419.66999999999985 515.1999999999999 423.71999999999986 519.3599999999999C427.4399999999999 523.1699999999998 431.65999999999985 522.9199999999998 431.65999999999985 522.9199999999998 " fill="#4c6c91" fill-opacity="1" transform="matrix(1,0,0,1,-415,-504)"></path></svg>