<svg id="SvgjsSvg1023" xmlns="http://www.w3.org/2000/svg" version="1.1" xmlns:xlink="http://www.w3.org/1999/xlink" xmlns:svgjs="http://svgjs.com/svgjs" width="46" height="42" viewBox="0 0 46 42"><title>Shape</title><desc>Created with Avocode.</desc><defs id="SvgjsDefs1024"></defs><path id="SvgjsPath1025" d="M420 1092L414 1092L414 1112C414 1114.2 415.8 1116 418 1116L450 1116C452.2 1116 454 1114.2 454 1112L454 1088C454 1085.8 452.2 1084 450 1084L443.66 1084L440 1080L426 1080L426 1086L420 1086ZM434 1110C428.48 1110 424 1105.52 424 1100C424 1094.48 428.48 1090 434 1090C439.52 1090 444 1094.48 444 1100C444 1105.52 439.52 1110 434 1110ZM414 1080L408 1080L408 1084L414 1084L414 1090L418 1090L418 1084L424 1084L424 1080L418 1080L418 1074L414 1074ZM427.6 1100C427.6 1096.46 430.46000000000004 1093.6 434 1093.6C437.54 1093.6 440.4 1096.4599999999998 440.4 1100C440.4 1103.54 437.53999999999996 1106.4 434 1106.4C430.46 1106.4 427.6 1103.5400000000002 427.6 1100Z " fill="#303a43" fill-opacity="0.5" transform="matrix(1,0,0,1,-408,-1074)"></path></svg>