<svg id="SvgjsSvg1017" xmlns="http://www.w3.org/2000/svg" version="1.1" xmlns:xlink="http://www.w3.org/1999/xlink" xmlns:svgjs="http://svgjs.com/svgjs" width="32" height="21"><defs id="SvgjsDefs1018"></defs><path id="SvgjsPath1019" d="M562.4 516.92C562.14 516.5799999999999 566.04 516.5699999999999 568 516.92C566.76 519.27 565.43 520.74 562.4 520.9599999999999C558.81 520.7399999999999 556.22 517.9399999999999 556 514.4999999999999C556.22 511.0599999999999 558.81 508.2599999999999 562.4 508.0399999999999C563.9 508.25999999999993 565.04 508.8999999999999 566.4 509.6499999999999C566.91 508.9299999999999 566.84 508.80999999999995 568.8 506.4199999999999C567.16 505.0299999999999 564.77 503.9999999999999 562.4 503.9999999999999C556.54 503.9999999999999 552 508.6999999999999 552 514.4999999999999C552 520.2999999999998 556.54 524.9999999999999 562.4 524.9999999999999C570.51 524.9999999999999 572.56 517.4499999999999 572 512.0799999999999C571.88 512.42 562.4 512.0799999999999 562.4 512.0799999999999C562.4 512.0799999999999 562.14 516.5799999999999 562.4 516.92ZM580.8 508.85L578.4 508.85L578.4 512.08L574.4 512.08L574.4 514.5L578.4 514.5L578.4 518.54L580.8 518.54L580.8 514.5L584 514.5L584 512.08L580.8 512.08Z " fill="#f24033" fill-opacity="1" transform="matrix(1,0,0,1,-552,-504)"></path></svg>