<svg id="SvgjsSvg1008" xmlns="http://www.w3.org/2000/svg" version="1.1" xmlns:xlink="http://www.w3.org/1999/xlink" xmlns:svgjs="http://svgjs.com/svgjs" width="18" height="18"><defs id="SvgjsDefs1009"></defs><path id="SvgjsPath1010" d="M370.71 206L370.43 205.73C371.41 204.59 372 203.10999999999999 372 201.5C372 197.91 369.09 195 365.5 195C361.91 195 359 197.91 359 201.5C359 205.09 361.91 208 365.5 208C367.11 208 368.59 207.41 369.73 206.43L370 206.71L370 207.5L375 212.49L376.49 211L371.5 206ZM361 201.5C361 199.01 363.01 197 365.5 197C367.99 197 370 199.01 370 201.5C370 203.99 367.99 206 365.5 206C363.01 206 361 203.99 361 201.5Z " fill="#000000" fill-opacity="0.2" transform="matrix(1,0,0,1,-359,-195)"></path></svg>