<svg id="SvgjsSvg1000" xmlns="http://www.w3.org/2000/svg" version="1.1" xmlns:xlink="http://www.w3.org/1999/xlink" xmlns:svgjs="http://svgjs.com/svgjs" width="80" height="74"><defs id="SvgjsDefs1001"></defs><path id="SvgjsPath1007" d="M499 200.36C494.64 195.24 487.96 192 481 192C468.68 192 459 201.68 459 214C459 229.12 472.6 241.44 493.2 260.15999999999997L499 265.4L504.8 260.12C525.4 241.44 539 229.12 539 214C539 201.68 529.32 192 517 192C510.04 192 503.36 195.24 499 200.36ZM499 254.6L498.6 254.2C479.56 236.95999999999998 467 225.56 467 214C467 206 473 200 481 200C487.16 200 493.16 203.96 495.28 209.44L502.76 209.44C504.84 203.96 510.84 200 517 200C525 200 531 206 531 214C531 225.56 518.44 236.96 499.4 254.2Z " fill="#ea5528" fill-opacity="1" transform="matrix(1,0,0,1,-459,-192)"></path></svg>