<svg id="SvgjsSvg1017" xmlns="http://www.w3.org/2000/svg" version="1.1" xmlns:xlink="http://www.w3.org/1999/xlink" xmlns:svgjs="http://svgjs.com/svgjs" width="18" height="18"><defs id="SvgjsDefs1018"></defs><path id="SvgjsPath1019" d="M291 185L299 185L299 183L291 183L291 181L289 181L289 187L291 187ZM285 177L281 177L281 179L285 179L285 181L287 181L287 175L285 175ZM281 173L291 173L291 171L281 171ZM299 177L289 177L289 179L299 179ZM281 185L287 185L287 183L281 183ZM293 175L293 169L295 169L295 171L299 171L299 173L295 173L295 175Z " fill="#50697d" fill-opacity="1" transform="matrix(1,0,0,1,-281,-169)"></path></svg>