<svg id="SvgjsSvg1011" xmlns="http://www.w3.org/2000/svg" version="1.1" xmlns:xlink="http://www.w3.org/1999/xlink" xmlns:svgjs="http://svgjs.com/svgjs" width="20" height="18"><defs id="SvgjsDefs1012"></defs><path id="SvgjsPath1013" d="M55 795C53.34 795 52 796.34 52 798L52 804L56 804L56 808L68 808L68 804L72 804L72 798C72 796.34 70.66 795 69 795ZM58 806L58 801L66 801L66 806ZM68 798C68 797.45 68.45 797 69 797C69.55 797 70 797.45 70 798C70 798.55 69.55 799 69 799C68.45 799 68 798.55 68 798ZM68 790L68 794L56 794L56 790Z " fill="#ffffff" fill-opacity="1" transform="matrix(1,0,0,1,-52,-790)"></path></svg>