<svg id="SvgjsSvg1008" xmlns="http://www.w3.org/2000/svg" version="1.1" xmlns:xlink="http://www.w3.org/1999/xlink" xmlns:svgjs="http://svgjs.com/svgjs" width="18" height="18"><defs id="SvgjsDefs1009"></defs><path id="SvgjsPath1010" d="M285.71 102L285.43 101.73C286.41 100.59 287 99.11 287 97.5C287 93.91 284.09 91 280.5 91C276.91 91 274 93.91 274 97.5C274 101.09 276.91 104 280.5 104C282.11 104 283.59 103.41 284.73 102.43L285 102.71000000000001L285 103.50000000000001L290 108.49000000000001L291.49 107.00000000000001L286.5 102.00000000000001ZM276 97.5C276 95.01 278.01 93 280.5 93C282.99 93 285 95.01 285 97.5C285 99.99 282.99 102 280.5 102C278.01 102 276 99.99 276 97.5Z " fill="#313b43" fill-opacity="1" transform="matrix(1,0,0,1,-274,-91)"></path></svg>