<svg id="SvgjsSvg1000" xmlns="http://www.w3.org/2000/svg" version="1.1" xmlns:xlink="http://www.w3.org/1999/xlink" xmlns:svgjs="http://svgjs.com/svgjs" width="76.03085999999985" height="119.64370000000008"><defs id="SvgjsDefs1001"><filter id="SvgjsFilter1008" width="200%" height="200%" x="-50%" y="-50%"><feGaussianBlur id="SvgjsFeGaussianBlur1009" stdDeviation="5 " result="SvgjsFeGaussianBlur1009Out" in="SourceGraphic"></feGaussianBlur></filter></defs><path id="SvgjsPath1007" d="M1326 803.3563C1350.78536 806.32043 1370 827.4163100000001 1370 853C1370 880.61424 1347.61424 903 1320 903C1317.95884 903 1315.94624 902.87769 1313.96914 902.64L1326 902.64Z " fill="#303a43" fill-opacity="0.06" filter="url(#SvgjsFilter1008)" transform="matrix(1,0,0,1,-1303.48457,-793.17815)"></path><path id="SvgjsPath1010" d="M1326 803.3563C1350.78536 806.32043 1370 827.4163100000001 1370 853C1370 880.61424 1347.61424 903 1320 903C1317.95884 903 1315.94624 902.87769 1313.96914 902.64L1326 902.64Z " fill="#ffffff" fill-opacity="1" transform="matrix(1,0,0,1,-1303.48457,-793.17815)"></path></svg>