<svg id="SvgjsSvg1008" xmlns="http://www.w3.org/2000/svg" version="1.1" xmlns:xlink="http://www.w3.org/1999/xlink" xmlns:svgjs="http://svgjs.com/svgjs" width="18" height="20"><defs id="SvgjsDefs1009"></defs><path id="SvgjsPath1010" d="M464 788C465.1 788 466 788.9 466 790L466 804C466 805.1 465.1 806 464 806L450 806C448.89 806 448 805.1 448 804L448.01 790C448.01 788.9 448.89 788 450 788L451 788L451 786L453 786L453 788L461 788L461 786L463 786L463 788ZM452 795L452 797L454 797L454 795ZM456 795L456 797L458 797L458 795ZM460 795L460 797L462 797L462 795ZM464 804L464 793L450 793L450 804Z " fill="#303a43" fill-opacity="0.5" transform="matrix(1,0,0,1,-448,-786)"></path></svg>