<svg id="SvgjsSvg1008" xmlns="http://www.w3.org/2000/svg" version="1.1" xmlns:xlink="http://www.w3.org/1999/xlink" xmlns:svgjs="http://svgjs.com/svgjs" width="22" height="15"><defs id="SvgjsDefs1009"></defs><path id="SvgjsPath1010" d="M448 866.5C449.73 870.89 454 874 459 874C464 874 468.27 870.89 470 866.5C468.27 862.11 464 859 459 859C454 859 449.73 862.11 448 866.5ZM454 866.5C454 863.74 456.24 861.5 459 861.5C461.76 861.5 464 863.74 464 866.5C464 869.26 461.76 871.5 459 871.5C456.24 871.5 454 869.26 454 866.5ZM459 863.5C460.66 863.5 462 864.84 462 866.5C462 868.16 460.66 869.5 459 869.5C457.34 869.5 456 868.16 456 866.5C456 864.84 457.34 863.5 459 863.5Z " fill="#ea5528" fill-opacity="1" transform="matrix(1,0,0,1,-448,-859)"></path></svg>