<svg id="SvgjsSvg1014" xmlns="http://www.w3.org/2000/svg" version="1.1" xmlns:xlink="http://www.w3.org/1999/xlink" xmlns:svgjs="http://svgjs.com/svgjs" width="32" height="27"><defs id="SvgjsDefs1015"></defs><path id="SvgjsPath1016" d="M515.14 501.87C513.85 502.28000000000003 512.4399999999999 502.85 510.81 502.74C509.75 501.83 508.04 501 506.49 501C502.53000000000003 501 499.59000000000003 504.05 499.57 507.97C499.59 508.35 499.65 508.87 499.57 509.71000000000004C494.3 509.08000000000004 489.46999999999997 506.37000000000006 486.59 501.87000000000006C485.65999999999997 503.25000000000006 485.34 504.43000000000006 485.72999999999996 505.3500000000001C485.34 508.0400000000001 486.49999999999994 510.12000000000006 488.31999999999994 511.4500000000001C487.18999999999994 511.3100000000001 486.16999999999996 511.0000000000001 484.85999999999996 510.5800000000001C485.28 510.5000000000001 485.28 510.5800000000001 484.85999999999996 510.5800000000001C485.28 513.8800000000001 487.54999999999995 516.6400000000001 490.91999999999996 517.5500000000001C489.99999999999994 517.4200000000001 489.41999999999996 517.5000000000001 489.18999999999994 517.5500000000001C488.3999999999999 517.5000000000001 487.98999999999995 517.46 487.4599999999999 517.5500000000001C488.4199999999999 520.09 490.8499999999999 522.0600000000001 493.50999999999993 521.9000000000001C491.4699999999999 523.94 488.63999999999993 525.0300000000001 485.72999999999996 525.3900000000001C485.03999999999996 525.0300000000001 484.50999999999993 525.0000000000001 483.99999999999994 524.5200000000001C486.8999999999999 526.8700000000001 490.35999999999996 528.0000000000001 494.37999999999994 528.0000000000001C506.13999999999993 528.0000000000001 512.7399999999999 517.6200000000001 512.54 508.8400000000001C512.74 508.3100000000001 512.74 508.0100000000001 512.54 507.9700000000001C514.01 506.7600000000001 515.12 505.56000000000006 516 504.4800000000001C514.82 504.74000000000007 513.56 505.1000000000001 512.54 505.3500000000001C513.5899999999999 504.43000000000006 514.63 503.0900000000001 515.14 501.87000000000006 " fill="#24a9e6" fill-opacity="1" transform="matrix(1,0,0,1,-484,-501)"></path></svg>