<svg id="SvgjsSvg1008" xmlns="http://www.w3.org/2000/svg" version="1.1" xmlns:xlink="http://www.w3.org/1999/xlink" xmlns:svgjs="http://svgjs.com/svgjs" width="32" height="32"><defs id="SvgjsDefs1009"></defs><path id="SvgjsPath1010" d="M380 528.27C380 529.21 379.21 530 378.27 530C378.22999999999996 530 370.49 530 370.49 530L370.49 517.89L373.95 517.89L374.81 512.6999999999999L370.49 512.6999999999999C370.49 512.6999999999999 370.08 509.68999999999994 370.49 510.10999999999996C370.08 508.29999999999995 370.47 507.34 372.22 507.50999999999993C372.47 507.3399999999999 374.81 507.50999999999993 374.81 507.50999999999993C374.81 507.50999999999993 375.03000000000003 503.0199999999999 374.81 503.18999999999994C374.59 502.9599999999999 373.07 502.8299999999999 371.35 503.18999999999994C367.62 502.8299999999999 365.09000000000003 505.0799999999999 365.3 509.23999999999995C365.09000000000003 509.21999999999997 365.3 512.6999999999999 365.3 512.6999999999999L360.97 512.6999999999999L360.97 517.89L365.3 517.89L365.3 530C365.3 530 349.77000000000004 530 349.73 530C348.79 530 348 529.21 348 528.27C348 528.23 348 499.77 348 499.72999999999996C348 498.78999999999996 348.79 497.99999999999994 349.73 497.99999999999994C349.77000000000004 497.99999999999994 378.23 497.99999999999994 378.27000000000004 497.99999999999994C379.21000000000004 497.99999999999994 380.00000000000006 498.78999999999996 380.00000000000006 499.72999999999996C380.00000000000006 499.77 380.00000000000006 528.27 380.00000000000006 528.27 " fill="#43619c" fill-opacity="1" transform="matrix(1,0,0,1,-348,-498)"></path></svg>