<svg id="SvgjsSvg1011" xmlns="http://www.w3.org/2000/svg" version="1.1" xmlns:xlink="http://www.w3.org/1999/xlink" xmlns:svgjs="http://svgjs.com/svgjs" width="26" height="26"><defs id="SvgjsDefs1012"></defs><path id="SvgjsPath1013" d="M896.23 3340.25C898.3100000000001 3344.34 901.66 3347.68 905.75 3349.77L908.93 3346.59C909.3199999999999 3346.2000000000003 909.89 3346.07 910.4 3346.25C912.02 3346.78 913.76 3347.07 915.56 3347.07C916.3499999999999 3347.07 917 3347.7200000000003 917 3348.51L917 3353.5600000000004C917 3354.3500000000004 916.35 3355.0000000000005 915.56 3355.0000000000005C901.9899999999999 3355.0000000000005 891 3344.0100000000007 891 3330.4400000000005C891 3329.6500000000005 891.65 3329.0000000000005 892.44 3329.0000000000005L897.5 3329.0000000000005C898.29 3329.0000000000005 898.94 3329.6500000000005 898.94 3330.4400000000005C898.94 3332.2500000000005 899.23 3333.9800000000005 899.7700000000001 3335.6000000000004C899.9300000000001 3336.1100000000006 899.8100000000001 3336.6700000000005 899.4100000000001 3337.07L896.2300000000001 3340.25Z " fill="#000000" fill-opacity="0.3" transform="matrix(1,0,0,1,-891,-3329)"></path></svg>