<svg id="SvgjsSvg1000" xmlns="http://www.w3.org/2000/svg" version="1.1" xmlns:xlink="http://www.w3.org/1999/xlink" xmlns:svgjs="http://svgjs.com/svgjs" width="18" height="18"><defs id="SvgjsDefs1001"></defs><path id="SvgjsPath1007" d="M232.71 43L232.43 42.73C233.41 41.589999999999996 234 40.11 234 38.5C234 34.91 231.09 32 227.5 32C223.91 32 221 34.91 221 38.5C221 42.09 223.91 45 227.5 45C229.11 45 230.59 44.41 231.73 43.43L232 43.71L232 44.5L237 49.49L238.49 48L233.5 43ZM223 38.5C223 36.01 225.01 34 227.5 34C229.99 34 232 36.01 232 38.5C232 40.99 229.99 43 227.5 43C225.01 43 223 40.99 223 38.5Z " fill="#000000" fill-opacity="0.2" transform="matrix(1,0,0,1,-221,-32)"></path></svg>